<svg width="472" height="338" viewBox="0 0 472 338" fill="none" xmlns="http://www.w3.org/2000/svg">
<path fill-rule="evenodd" clip-rule="evenodd" d="M464.642 125.618C414.481 36.3161 373.131 121.704 242.974 25.4226C190.043 -13.7331 66.6169 -6.90459 20.8117 40.7062C-29.6057 93.1096 28.4116 187.415 20.8117 252C3.79027 396.646 204.554 257.732 320 313.5C401.459 363.077 498.896 186.604 464.642 125.618Z" fill="#FDFDFD"/>
<path fill-rule="evenodd" clip-rule="evenodd" d="M47.8925 47H332.108C337.019 47 341 50.9327 341 55.784V242.216C341 247.067 337.019 251 332.108 251H47.8925C42.9813 251 39 247.067 39 242.216V55.784C39 50.9327 42.9813 47 47.8925 47Z" fill="#D9E2E4"/>
<path fill-rule="evenodd" clip-rule="evenodd" d="M52.6396 49.0174H328.901C333.675 49.0174 337.545 52.8873 337.545 57.661V238.951C337.545 243.725 333.675 247.594 328.901 247.594H52.6396C47.8658 247.594 43.996 243.725 43.996 238.951V57.661C43.996 52.8873 47.8658 49.0174 52.6396 49.0174Z" fill="white"/>
<path fill-rule="evenodd" clip-rule="evenodd" d="M39 68V52.5105C39 49.4795 42.4614 47 46.692 47H333.308C337.538 47 341 49.4795 341 52.5105V68H39Z" fill="#4C5566"/>
<path fill-rule="evenodd" clip-rule="evenodd" d="M49.242 61.616C51.1493 61.616 52.6955 60.0698 52.6955 58.1624C52.6955 56.2551 51.1493 54.7088 49.242 54.7088C47.3346 54.7088 45.7884 56.2551 45.7884 58.1624C45.7884 60.0698 47.3346 61.616 49.242 61.616Z" fill="#FA538D"/>
<path fill-rule="evenodd" clip-rule="evenodd" d="M62.3997 61.7456C64.3071 61.7456 65.8533 60.1994 65.8533 58.2921C65.8533 56.3847 64.3071 54.8385 62.3997 54.8385C60.4924 54.8385 58.9462 56.3847 58.9462 58.2921C58.9462 60.1994 60.4924 61.7456 62.3997 61.7456Z" fill="#FAB353"/>
<path fill-rule="evenodd" clip-rule="evenodd" d="M75.5575 61.7456C77.4648 61.7456 79.011 60.1994 79.011 58.2921C79.011 56.3847 77.4648 54.8385 75.5575 54.8385C73.6501 54.8385 72.1039 56.3847 72.1039 58.2921C72.1039 60.1994 73.6501 61.7456 75.5575 61.7456Z" fill="#9DC925"/>
<path fill-rule="evenodd" clip-rule="evenodd" d="M116.182 91.0956H238.778C239.733 91.0956 240.506 91.8695 240.506 92.8243V95.4105C240.506 96.3652 239.733 97.1392 238.778 97.1392H116.182C115.227 97.1392 114.453 96.3652 114.453 95.4105V92.8243C114.453 91.8695 115.227 91.0956 116.182 91.0956Z" fill="#D9E2E4"/>
<path fill-rule="evenodd" clip-rule="evenodd" d="M116.231 102.303H308.76C309.715 102.303 310.489 103.077 310.489 104.032V106.618C310.489 107.573 309.715 108.347 308.76 108.347H116.231C115.276 108.347 114.502 107.573 114.502 106.618V104.032C114.502 103.077 115.276 102.303 116.231 102.303Z" fill="#D9E2E4"/>
<path fill-rule="evenodd" clip-rule="evenodd" d="M116.231 113.51H308.76C309.715 113.51 310.489 114.284 310.489 115.239V117.825C310.489 118.78 309.715 119.554 308.76 119.554H116.231C115.276 119.554 114.502 118.78 114.502 117.825V115.239C114.502 114.284 115.276 113.51 116.231 113.51Z" fill="#D9E2E4"/>
<path fill-rule="evenodd" clip-rule="evenodd" d="M68.1408 84.6297H87.9391C93.7967 84.6297 98.5452 89.3782 98.5452 95.2359V115.034C98.5452 120.892 93.7967 125.64 87.9391 125.64H68.1408C62.2832 125.64 57.5347 120.892 57.5347 115.034V95.2359C57.5347 89.3782 62.2832 84.6297 68.1408 84.6297Z" fill="white"/>
<mask id="mask0" mask-type="alpha" maskUnits="userSpaceOnUse" x="57" y="84" width="42" height="42">
<rect x="57.5347" y="84.6297" width="41.0106" height="41.0106" rx="20.5053" fill="white"/>
</mask>
<g mask="url(#mask0)">
<path fill-rule="evenodd" clip-rule="evenodd" d="M90.6795 107.616C92.9269 114.675 84.9587 118.68 78.1774 118.769C71.396 118.858 62.1543 119.486 65.7206 105.463C67.5475 98.278 71.0365 91.9202 77.8217 91.8303C84.607 91.7404 88.9733 102.253 90.6795 107.616Z" fill="#37474F"/>
<rect x="75.3583" y="110.623" width="6.26673" height="6.97384" transform="rotate(-0.744803 75.3583 110.623)" fill="#FFDFAE"/>
<path fill-rule="evenodd" clip-rule="evenodd" d="M75.411 114.584L75.3678 111.354L81.6344 111.271L81.672 114.08C81.672 114.08 81.2805 115.326 78.8274 115.358C76.3082 115.392 75.411 114.584 75.411 114.584Z" fill="#F4CA92"/>
<path fill-rule="evenodd" clip-rule="evenodd" d="M85.5958 103.785C85.6745 109.712 81.656 114.27 78.2738 114.302C75.5657 114.329 72.0741 111.478 70.5166 106.949C70.3437 106.445 67.9615 105.832 67.869 104.077C67.7674 102.152 69.7503 103.52 69.7421 102.91C69.6237 94.0072 77.6151 94.0318 77.3852 97.2788C76.8688 104.558 85.5167 97.8596 85.5958 103.785Z" fill="#FFDFAE"/>
<path fill-rule="evenodd" clip-rule="evenodd" d="M91.572 127.793C91.5214 124.001 85.7047 116.251 78.2401 116.35C70.7754 116.449 65.1337 124.351 65.1838 128.143L91.572 127.793Z" fill="#DF633A"/>
</g>
<path fill-rule="evenodd" clip-rule="evenodd" d="M116.182 142.059H238.778C239.733 142.059 240.506 142.833 240.506 143.788V146.374C240.506 147.329 239.733 148.103 238.778 148.103H116.182C115.227 148.103 114.453 147.329 114.453 146.374V143.788C114.453 142.833 115.227 142.059 116.182 142.059Z" fill="#D9E2E4"/>
<path fill-rule="evenodd" clip-rule="evenodd" d="M116.231 153.267H308.76C309.715 153.267 310.489 154.041 310.489 154.995V157.582C310.489 158.536 309.715 159.31 308.76 159.31H116.231C115.276 159.31 114.502 158.536 114.502 157.582V154.995C114.502 154.041 115.276 153.267 116.231 153.267Z" fill="#D9E2E4"/>
<path fill-rule="evenodd" clip-rule="evenodd" d="M116.231 164.474H308.76C309.715 164.474 310.489 165.248 310.489 166.203V168.789C310.489 169.744 309.715 170.518 308.76 170.518H116.231C115.276 170.518 114.502 169.744 114.502 168.789V166.203C114.502 165.248 115.276 164.474 116.231 164.474Z" fill="#D9E2E4"/>
<path fill-rule="evenodd" clip-rule="evenodd" d="M68.7714 135.593H87.3085C93.5144 135.593 98.5452 140.624 98.5452 146.83V165.367C98.5452 171.573 93.5144 176.604 87.3085 176.604H68.7714C62.5655 176.604 57.5347 171.573 57.5347 165.367V146.83C57.5347 140.624 62.5655 135.593 68.7714 135.593Z" fill="white"/>
<mask id="mask1" mask-type="alpha" maskUnits="userSpaceOnUse" x="57" y="135" width="42" height="42">
<rect x="57.5347" y="135.593" width="41.0106" height="41.0106" rx="20.5053" fill="white"/>
</mask>
<g mask="url(#mask1)">
<path fill-rule="evenodd" clip-rule="evenodd" d="M91.2003 172.045C90.7893 179.441 81.1456 180.589 74.3643 180.679C67.5829 180.769 62.1543 170.45 65.7206 156.426C67.5475 149.242 71.0365 142.884 77.8217 142.794C84.607 142.704 92.0638 156.504 91.2003 172.045Z" fill="#37474F"/>
<rect x="75.3583" y="161.587" width="6.26673" height="8.39886" transform="rotate(-0.744803 75.3583 161.587)" fill="#FFDFAE"/>
<path fill-rule="evenodd" clip-rule="evenodd" d="M75.411 165.952L75.3678 162.721L81.6344 162.638L81.672 165.447C81.672 165.447 81.2805 166.693 78.827 166.725C76.3082 166.759 75.411 165.952 75.411 165.952Z" fill="#F4CA92"/>
<path fill-rule="evenodd" clip-rule="evenodd" d="M85.1567 154.346C85.1683 155.105 85.1377 155.865 85.0651 156.621C84.9933 157.35 86.1148 155.288 86.3616 156.816C86.6711 158.725 84.498 159.579 84.3554 159.988C83.332 162.933 81.3193 164.905 78.2725 165.266C75.5139 165.592 72.9134 163.269 71.4008 160.145C71.2063 159.743 69.2554 159.732 69.0899 158.123C68.8436 155.72 70.5083 157.485 70.3999 157.1C69.615 154.328 70.0723 152.134 72.6386 153.051C73.1572 153.236 72.524 151.234 73.0707 151.322C73.5055 151.394 73.4541 153.035 73.9351 153.051C74.3473 153.061 74.7597 153.046 75.1703 153.008C79.5686 152.605 85.0992 149.984 85.1567 154.346Z" fill="#FFDFAE"/>
<path fill-rule="evenodd" clip-rule="evenodd" d="M90.7085 178.325C90.6653 175.084 86.2021 168.169 82.9526 168.539C81.5648 168.696 79.4554 169.403 78.5785 169.433L74.1183 168.652C67.1118 170.269 64.2784 175.5 64.3208 178.676L90.7085 178.325Z" fill="#4FB0B0"/>
<path fill-rule="evenodd" clip-rule="evenodd" d="M78.5789 169.27L73.1822 174.204L73.6282 168.17L78.5789 169.27Z" fill="white"/>
<path fill-rule="evenodd" clip-rule="evenodd" d="M78.4916 169.245L83.8882 174.178L83.4422 168.144L78.4916 169.245Z" fill="white"/>
</g>
<path fill-rule="evenodd" clip-rule="evenodd" d="M116.182 192.716H238.778C239.733 192.716 240.506 193.49 240.506 194.444V197.031C240.506 197.985 239.733 198.759 238.778 198.759H116.182C115.227 198.759 114.453 197.985 114.453 197.031V194.444C114.453 193.49 115.227 192.716 116.182 192.716Z" fill="#D9E2E4"/>
<path fill-rule="evenodd" clip-rule="evenodd" d="M116.231 203.923H308.76C309.715 203.923 310.489 204.697 310.489 205.652V208.238C310.489 209.193 309.715 209.967 308.76 209.967H116.231C115.276 209.967 114.502 209.193 114.502 208.238V205.652C114.502 204.697 115.276 203.923 116.231 203.923Z" fill="#D9E2E4"/>
<path fill-rule="evenodd" clip-rule="evenodd" d="M116.231 215.13H308.76C309.715 215.13 310.489 215.904 310.489 216.859V219.445C310.489 220.4 309.715 221.174 308.76 221.174H116.231C115.276 221.174 114.502 220.4 114.502 219.445V216.859C114.502 215.904 115.276 215.13 116.231 215.13Z" fill="#D9E2E4"/>
<path fill-rule="evenodd" clip-rule="evenodd" d="M68.7714 186.25H87.3085C93.5144 186.25 98.5452 191.281 98.5452 197.487V216.024C98.5452 222.23 93.5144 227.26 87.3085 227.26H68.7714C62.5655 227.26 57.5347 222.23 57.5347 216.024V197.487C57.5347 191.281 62.5655 186.25 68.7714 186.25Z" fill="white"/>
<mask id="mask2" mask-type="alpha" maskUnits="userSpaceOnUse" x="57" y="186" width="42" height="42">
<rect x="57.5347" y="186.25" width="41.0106" height="41.0106" rx="20.5053" fill="white"/>
</mask>
<g mask="url(#mask2)">
<path fill-rule="evenodd" clip-rule="evenodd" d="M85.1567 208.888C82.5666 208.888 69.0998 213.423 67.4576 203.276C66.4532 197.071 69.1863 194.211 73.9329 193.347C73.9329 193.347 73.1226 192.042 73.9329 192.051C74.5851 192.058 74.8215 192.798 75.6617 192.915C76.2697 192.999 75.4132 191.964 76.0938 192.051C76.8363 192.146 77.3813 193.204 78.2522 192.915C80.8422 192.051 83.8174 195.012 84.7275 195.505C87.9309 197.238 88.1785 208.888 85.1567 208.888Z" fill="#37474F"/>
<rect x="75.3583" y="212.243" width="6.26673" height="9.63889" transform="rotate(-0.744803 75.3583 212.243)" fill="#FFDFAE"/>
<path fill-rule="evenodd" clip-rule="evenodd" d="M75.411 216.204L75.3678 212.974L81.6344 212.891L81.672 215.7C81.672 215.7 81.2805 216.946 78.827 216.978C76.3082 217.012 75.411 216.204 75.411 216.204Z" fill="#F4CA92"/>
<path fill-rule="evenodd" clip-rule="evenodd" d="M86.2713 205.273C86.2527 205.514 87.6798 204.399 87.7467 205.002C88.1789 208.887 86.1693 208.649 86.018 209.319C85.1874 213.039 83.428 214.499 81.2692 215.363C80.3249 215.741 76.8761 216.244 75.6573 215.363C74.5285 214.547 72.2038 213.634 70.909 210.614C70.1816 208.917 67.8871 209.75 67.4554 205.866C67.3642 205.048 69.6137 205.866 69.6137 205.866C69.6137 205.866 69.1863 204.029 69.1815 203.707C69.0631 194.804 74.1849 200.423 77.3835 199.822C84.2936 198.527 86.8837 197.23 86.2713 205.273Z" fill="#FFDFAE"/>
<path fill-rule="evenodd" clip-rule="evenodd" d="M93.3586 228.313C93.3323 226.327 90.3597 223.449 87.7467 220.974C86.3884 219.688 83.5503 217.521 81.7031 217.521C81.7031 217.521 81.2709 220.111 78.6813 219.679C76.007 219.233 75.8678 218.214 75.4313 217.741C75.347 217.65 72.2764 218.216 70.0476 220.111C66.8979 222.79 64.2936 227.308 64.3208 229.331L93.3586 228.313Z" fill="#CC3A32"/>
</g>
<path fill-rule="evenodd" clip-rule="evenodd" d="M378.738 337.181C399.475 337.181 416.286 332.647 416.286 327.053C416.286 321.46 399.475 316.925 378.738 316.925C358.001 316.925 341.19 321.46 341.19 327.053C341.19 332.647 358.001 337.181 378.738 337.181Z" fill="#EAEFF4"/>
<rect x="403.515" y="324.247" width="5.8526" height="9.04253" transform="rotate(174.369 403.515 324.247)" fill="#FFDFAE"/>
<path fill-rule="evenodd" clip-rule="evenodd" d="M404.955 328.856L384.254 328.837C384.161 328.052 384.315 327.257 384.694 326.563L404.452 326.279L404.955 328.856Z" fill="#92AED9"/>
<path fill-rule="evenodd" clip-rule="evenodd" d="M384.695 326.562C385.98 324.492 390.082 324.926 392.798 322.313C394.941 320.252 397.146 320.765 397.146 320.765C397.146 320.765 398.171 323.636 400.863 323.314C402.16 323.159 401.894 322.155 402.635 321.734C402.945 321.568 403.324 321.609 403.591 321.838L404.745 327.759L384.238 328.031C384.248 327.508 384.406 326.999 384.695 326.562Z" fill="white"/>
<rect x="367.461" y="323.739" width="5.8526" height="9.04253" transform="rotate(-173.631 367.461 323.739)" fill="#FFDFAE"/>
<path fill-rule="evenodd" clip-rule="evenodd" d="M369.695 327.824L348.998 327.444C348.919 326.657 349.086 325.865 349.477 325.177L369.238 325.238L369.695 327.824Z" fill="#92AED9"/>
<path fill-rule="evenodd" clip-rule="evenodd" d="M349.478 325.177C350.799 323.13 354.893 323.635 357.654 321.07C359.833 319.047 362.029 319.598 362.029 319.598C362.029 319.598 363.003 322.488 365.7 322.213C366.999 322.08 366.752 321.071 367.5 320.664C367.812 320.503 368.191 320.551 368.454 320.784L369.504 326.724L348.993 326.638C349.012 326.115 349.18 325.608 349.478 325.177Z" fill="white"/>
<path fill-rule="evenodd" clip-rule="evenodd" d="M371.898 230.735H393.48L368.772 317.267L361.666 316.149C361.666 316.149 365.177 279.04 365.438 275.443C366.385 262.365 371.898 230.735 371.898 230.735Z" fill="#92AED9"/>
<path fill-rule="evenodd" clip-rule="evenodd" d="M400.145 231.287L380.858 230.779L386.441 277.474L396.498 317.909L403.604 316.791C403.604 316.791 400.406 275.995 400.147 272.398C399.197 259.318 400.145 231.287 400.145 231.287Z" fill="#B0C9F1"/>
<path fill-rule="evenodd" clip-rule="evenodd" d="M403.587 167.602C404.281 180.276 412.696 177.493 411.785 178.842C408.157 184.214 395.39 181.568 395.39 169.4C395.39 157.233 387.952 152.465 394.023 150.067C396.301 149.168 402.677 150.966 403.587 167.602Z" fill="#37474F"/>
<path opacity="0.704" fill-rule="evenodd" clip-rule="evenodd" d="M388.979 168.35C384.307 162.584 376.387 161.388 378.539 155.013C380.816 148.268 392.202 148.268 394.934 150.966C405.117 161.019 394.443 175.094 388.979 168.35Z" fill="#263238"/>
<path fill-rule="evenodd" clip-rule="evenodd" d="M386.067 171.608C382.235 165.267 374.571 164.768 375.807 158.161C377.438 149.448 391.744 144.827 396.301 152.316C402.04 161.746 391.547 180.677 386.067 171.608Z" fill="#37474F"/>
<path fill-rule="evenodd" clip-rule="evenodd" d="M388.686 167.409H384.519L378.356 177.569L373.828 186.791L400.091 186.548L392.024 177.993L388.686 167.409Z" fill="#FFDFAE"/>
<path fill-rule="evenodd" clip-rule="evenodd" d="M390.773 174.001C390.773 174.001 388.601 180.749 386.519 180.749C384.041 180.749 380.638 175.367 379.444 172.512C379.33 172.242 385.975 166.32 385.975 166.32L388.861 167.904L390.773 174.001Z" fill="#F4CA92"/>
<path fill-rule="evenodd" clip-rule="evenodd" d="M392.909 164.494C393.588 165.783 390.74 168.112 390.645 168.793C389.853 174.455 385.891 176.532 383.626 176.532C380.003 176.532 375.674 167.047 375.674 160.386C375.674 156.296 380.477 159.287 382.272 160.349C385.643 162.345 389.144 158.772 390.605 163.101C391.091 164.545 391.93 162.635 392.909 164.494Z" fill="#FFDFAE"/>
<path fill-rule="evenodd" clip-rule="evenodd" d="M355.671 218.256C357.674 230.384 370.254 229.023 370.254 229.023L371.42 225.063L361.301 213.386L374.152 182.349C374.152 182.349 368.603 183.01 367.747 183.536C362.518 189.288 354.024 208.284 355.671 218.256Z" fill="#CC3A32"/>
<path fill-rule="evenodd" clip-rule="evenodd" d="M393.675 224.241L374.19 224.181L377.738 178.732C377.738 178.732 377.9 181.782 383.8 182.025C386.671 182.143 393.399 179.328 393.399 179.328L393.675 224.241Z" fill="white"/>
<path fill-rule="evenodd" clip-rule="evenodd" d="M398.636 216.09L400.385 234.428L398.09 234.946L397.179 235.137L396.942 235.189L386.283 237.564L386.083 237.616L384.279 238.014L384.134 237.426L383.241 233.616L380.963 223.885L380.618 222.413L380.016 219.798L379.706 218.501L379.087 215.869L380.527 212.493L380.743 211.956L380.78 211.904L385.261 201.324L392.531 181.498L392.549 181.463L393.059 180.112L393.35 179.35V179.333L400.729 183.628L400.364 188.199V188.251L399.872 194.536L399.034 205.047C399.034 205.047 398.834 207.653 398.67 209.758C398.506 211.863 398.378 213.463 398.378 213.463L398.636 216.09Z" fill="#D36964"/>
<path fill-rule="evenodd" clip-rule="evenodd" d="M411.521 214.038C406.729 225.69 387.179 230.214 387.179 230.214L386.013 226.148L405.448 210.79L399.838 194.849L400.718 183.617C400.718 183.617 415.461 204.458 411.521 214.038Z" fill="#CC3A32"/>
<path fill-rule="evenodd" clip-rule="evenodd" d="M377.789 178.766L377.785 178.854L377.797 179.061L377.835 180.136L378.264 194.652L379.1 212.616L379.104 212.65L379.215 214.865L379.27 215.972L377.922 222.247L377.034 226.359L377 226.52L376.907 226.967L376.566 228.557L376.548 228.63L374.916 236.21L373.059 235.082L372.045 234.475L368.594 232.374C368.594 232.374 368.822 230.849 369.185 228.559C369.218 228.276 369.272 227.956 369.314 227.638C369.469 226.609 369.638 225.474 369.828 224.285C369.855 224.072 369.883 223.861 369.924 223.647C369.956 223.364 370.002 223.08 370.047 222.796C370.191 221.892 370.331 220.951 370.472 220.011C370.605 219.141 370.738 218.273 370.863 217.422C371.581 212.669 372.181 208.592 372.164 208.456C372.151 208.353 371.808 206.429 371.321 203.669C370.845 200.994 370.235 197.554 369.657 194.265L369.624 194.113L369.321 192.408L368.845 189.734C368.225 186.326 367.777 183.773 367.735 183.534L377.789 178.766Z" fill="#D36964"/>
<path fill-rule="evenodd" clip-rule="evenodd" d="M390.51 198.47L380.888 211.769L385.308 201.23L393.371 179.251L390.51 198.47Z" fill="#CC3A32"/>
<path fill-rule="evenodd" clip-rule="evenodd" d="M377.765 178.641L377.996 194.712L378.897 212.901L373.961 196.598L377.765 178.641Z" fill="#CC3A32"/>
<path fill-rule="evenodd" clip-rule="evenodd" d="M414.134 71.185H434.965C440.828 71.1862 445.581 75.9398 445.581 81.8032V102.634C445.58 108.498 440.826 113.25 434.963 113.25H414.132C408.268 113.25 403.516 108.496 403.515 102.633V81.8015C403.516 75.9379 408.27 71.185 414.134 71.185Z" fill="#8BCBD5"/>
<mask id="mask3" mask-type="alpha" maskUnits="userSpaceOnUse" x="403" y="71" width="43" height="43">
<rect x="403.515" y="71.185" width="42.0655" height="42.0655" rx="21.0328" fill="white"/>
</mask>
<g mask="url(#mask3)">
<path fill-rule="evenodd" clip-rule="evenodd" d="M436.846 101.121C440.787 105.712 426.488 104.665 418.516 104.769C411.503 104.861 411.076 103.037 412.044 99.0741C413.597 92.721 410.229 90.9309 411.729 85.8925C413.892 78.6206 417.991 75.5898 425.797 76.471C439.61 78.0277 433.718 97.4759 436.846 101.121Z" fill="#37474F"/>
<rect x="420.685" y="98.4474" width="7.36802" height="8.19961" transform="rotate(-0.744803 420.685 98.4474)" fill="#FFDFAE"/>
<path fill-rule="evenodd" clip-rule="evenodd" d="M420.747 103.104L420.696 99.3066L428.063 99.2085L428.106 102.511C428.106 102.511 427.647 103.975 424.762 104.013C421.801 104.054 420.747 103.104 420.747 103.104Z" fill="#F4CA92"/>
<path fill-rule="evenodd" clip-rule="evenodd" d="M433.205 93.2582C432.996 98.1393 428.09 102.734 424.113 102.773C420.593 102.807 414.856 98.1427 414.099 94.0426C414.018 93.6026 412.154 93.7401 411.953 91.2857C411.766 88.99 413.583 91.0761 413.58 90.7943C413.528 86.8688 414.951 87.7829 416.386 89.0099C418.179 90.5437 426.835 89.6672 429.149 88.671C430.37 88.1459 431.651 89.3193 432.477 90.5631C432.701 90.9006 433.955 88.9161 434.259 90.127C434.785 92.2175 433.229 92.6786 433.205 93.2582Z" fill="#FFDFAE"/>
<path fill-rule="evenodd" clip-rule="evenodd" d="M438.733 118.127C438.69 114.815 429.36 106.177 429.36 106.177L419.328 106.434C419.328 106.434 407.659 114.878 407.708 118.539L438.733 118.127Z" fill="#92AED9"/>
</g>
<path opacity="0.301" fill-rule="evenodd" clip-rule="evenodd" d="M389.814 102.377L389.835 86.919H405.634C412.521 86.919 418.104 91.6768 418.104 97.5454V113.25C418.104 113.25 413.539 113.179 412.628 113.25H401.187C398.253 113.25 389.814 110.386 389.814 102.377Z" fill="url(#paint0_linear)"/>
<path fill-rule="evenodd" clip-rule="evenodd" d="M382.347 86.919H403.178C409.042 86.9202 413.794 91.6738 413.794 97.5372V118.368C413.793 124.232 409.04 128.984 403.177 128.984H382.345C376.482 128.984 371.729 124.23 371.729 118.367V97.5355C371.73 91.6719 376.484 86.919 382.347 86.919Z" fill="#8BCBD5"/>
<mask id="mask4" mask-type="alpha" maskUnits="userSpaceOnUse" x="371" y="86" width="43" height="43">
<rect x="371.729" y="86.919" width="42.0655" height="42.0655" rx="21.0328" fill="white"/>
</mask>
<g mask="url(#mask4)">
<path fill-rule="evenodd" clip-rule="evenodd" d="M405.114 120.91C409.064 126.255 394.764 125.006 386.789 125.111C379.776 125.203 379.345 123.08 380.306 118.478C381.845 111.098 378.473 109.009 379.961 103.155C382.109 94.7073 386.202 91.1932 394.01 92.2335C407.827 94.0737 401.977 116.667 405.114 120.91Z" fill="#37474F"/>
<path fill-rule="evenodd" clip-rule="evenodd" d="M388.899 114.181L396.266 114.086L396.373 122.285L389.005 122.38L388.899 114.181Z" fill="#FFDFAE"/>
<path fill-rule="evenodd" clip-rule="evenodd" d="M388.96 118.838L388.91 115.041L396.276 114.942L396.32 118.245C396.32 118.245 395.859 119.709 392.975 119.747C390.015 119.788 388.96 118.838 388.96 118.838Z" fill="#F4CA92"/>
<path fill-rule="evenodd" clip-rule="evenodd" d="M401.418 108.992C401.21 113.873 396.303 118.468 392.326 118.507C388.807 118.541 383.07 113.877 382.312 109.777C382.231 109.337 380.367 109.474 380.167 107.02C379.98 104.724 381.797 106.81 381.793 106.528C381.741 102.603 383.811 103.508 385.6 102.906C388.135 102.051 388.173 99.9077 388.173 99.9077C389.624 105.79 401.717 102.03 401.418 108.992Z" fill="#FFDFAE"/>
<path fill-rule="evenodd" clip-rule="evenodd" d="M406.946 133.861C406.903 130.549 397.574 121.911 397.574 121.911L387.541 122.168C387.541 122.168 375.872 130.613 375.921 134.273L406.946 133.861Z" fill="#ECEFF1"/>
</g>
<rect x="414.882" y="119.05" width="42.0655" height="42.0655" rx="21.0328" fill="url(#paint1_linear)"/>
<path fill-rule="evenodd" clip-rule="evenodd" d="M425.5 119.05H446.332C452.195 119.051 456.948 123.805 456.948 129.668V150.499C456.947 156.363 452.193 161.115 446.33 161.115H425.499C419.635 161.114 414.882 156.361 414.882 150.498V129.666C414.883 123.803 419.637 119.05 425.5 119.05Z" fill="#8BCBD5"/>
<mask id="mask5" mask-type="alpha" maskUnits="userSpaceOnUse" x="414" y="119" width="43" height="43">
<rect x="414.882" y="119.05" width="42.0655" height="42.0655" rx="21.0328" fill="white"/>
</mask>
<g mask="url(#mask5)">
<path fill-rule="evenodd" clip-rule="evenodd" d="M426.242 140.961C422.042 124.377 431.354 131.476 437.845 127.013C438.488 126.571 442.056 128.223 443.127 128.854C446.605 130.906 446.744 138.819 444.603 140.662C439.562 145 427.176 144.648 426.242 140.961Z" fill="#37474F"/>
<path fill-rule="evenodd" clip-rule="evenodd" d="M443.958 157.774L427.067 158.504L431.432 153.551L432.051 146.312L439.418 146.214L439.782 153.358L443.958 157.774Z" fill="#FFDFAE"/>
<path fill-rule="evenodd" clip-rule="evenodd" d="M432.112 150.969L432.061 147.172L439.428 147.073L439.471 150.376C439.471 150.376 439.011 151.84 436.127 151.878C433.168 151.918 432.112 150.969 432.112 150.969Z" fill="#FFE082"/>
<path fill-rule="evenodd" clip-rule="evenodd" d="M444.283 143.693C443.65 148.458 441.268 150.412 439.474 150.376C438.069 150.348 433.3 151.177 431.645 150.027C429.157 148.299 428.301 146.743 427.846 144.279C427.765 143.839 425.652 144.43 425.452 141.977C425.264 139.681 427.147 141.105 427.144 140.824C427.091 136.898 429.823 134.648 431.595 135.297C434.361 136.31 443.466 135.093 444.283 140.082C444.383 140.694 445.08 139.294 445.543 140.347C446.64 142.842 444.396 142.83 444.283 143.693Z" fill="#FFDFAE"/>
<path fill-rule="evenodd" clip-rule="evenodd" d="M450.099 165.992C450.056 162.68 440.727 154.042 440.727 154.042C440.727 154.042 437.763 157.21 436.412 157.321C434.801 157.454 430.694 154.299 430.694 154.299C430.694 154.299 419.025 162.743 419.074 166.404L450.099 165.992Z" fill="#455A64"/>
<path fill-rule="evenodd" clip-rule="evenodd" d="M439.558 151.878H432.953C429.604 151.878 427.83 147.616 427.31 145.234C426.663 142.439 426.459 139.56 426.705 136.701C426.705 136.701 428.033 146.699 432.198 149C433.984 149.987 438.22 149.179 440.221 149.025C443.562 148.769 444.699 133.02 444.699 136.647L444.26 144.495C444.258 148.123 442.907 151.878 439.558 151.878Z" fill="#455A64"/>
</g>
<path fill-rule="evenodd" clip-rule="evenodd" d="M310.72 235.748L304.277 322.304H307.183L317.354 235.855L310.72 235.748Z" fill="#F9B25F"/>
<path fill-rule="evenodd" clip-rule="evenodd" d="M423.529 235.748L429.972 322.304H427.066L416.896 235.855L423.529 235.748Z" fill="#F9B25F"/>
<rect x="304.363" y="235.652" width="125.59" height="3.27983" fill="#D8984D"/>
<rect x="295.744" y="231.335" width="139.133" height="5.18013" fill="#F9B25F"/>
<path fill-rule="evenodd" clip-rule="evenodd" d="M345.482 203.982H384.623C385.545 203.982 386.3 204.935 386.3 206.099L389.096 229.217C389.096 230.382 388.341 231.335 387.418 231.335H348.277C347.355 231.335 346.6 230.382 346.6 229.217L343.804 206.099C343.804 204.935 344.559 203.982 345.482 203.982Z" fill="#D8D6DD"/>
<path fill-rule="evenodd" clip-rule="evenodd" d="M366.309 221.373C368.455 221.373 370.195 219.633 370.195 217.487C370.195 215.342 368.455 213.602 366.309 213.602C364.164 213.602 362.424 215.342 362.424 217.487C362.424 219.633 364.164 221.373 366.309 221.373Z" fill="white"/>
<defs>
<linearGradient id="paint0_linear" x1="430.41" y1="92.4881" x2="396.938" y2="73.4935" gradientUnits="userSpaceOnUse">
<stop stop-color="#1A1A1A"/>
<stop offset="0.338" stop-color="#232323"/>
<stop offset="0.9" stop-color="#3C3C3C"/>
<stop offset="1" stop-color="#424242"/>
</linearGradient>
<linearGradient id="paint1_linear" x1="468.936" y1="131.207" x2="427.039" y2="107.061" gradientUnits="userSpaceOnUse">
<stop stop-color="#F8BBD0"/>
<stop offset="0.139" stop-color="#EAAED2"/>
<stop offset="0.377" stop-color="#DA9ED5"/>
<stop offset="0.645" stop-color="#D195D7"/>
<stop offset="1" stop-color="#CE93D8"/>
</linearGradient>
</defs>
</svg>
