<svg width="563" height="395" viewBox="0 0 563 395" fill="none" xmlns="http://www.w3.org/2000/svg">
<g opacity="0.6">
<path fill-rule="evenodd" clip-rule="evenodd" d="M562.754 320.292C570.961 375.845 371.935 412.081 200.629 386.793C29.3221 361.505 -49.2652 262.753 32.4794 210.134C114.224 157.515 554.548 264.739 562.754 320.292Z" fill="#DDE3E9"/>
</g>
<rect x="55" width="367" height="286" rx="8" fill="#F2F2F2"/>
<path d="M55 8C55 3.58172 58.5817 0 63 0H414C418.418 0 422 3.58172 422 8V27H55V8Z" fill="#C5CFD6"/>
<path fill-rule="evenodd" clip-rule="evenodd" d="M68 18C70.2091 18 72 16.2091 72 14C72 11.7909 70.2091 10 68 10C65.7909 10 64 11.7909 64 14C64 16.2091 65.7909 18 68 18Z" fill="#F2F2F2"/>
<path fill-rule="evenodd" clip-rule="evenodd" d="M80 18C82.2091 18 84 16.2091 84 14C84 11.7909 82.2091 10 80 10C77.7909 10 76 11.7909 76 14C76 16.2091 77.7909 18 80 18Z" fill="#F2F2F2"/>
<path fill-rule="evenodd" clip-rule="evenodd" d="M92 18C94.2091 18 96 16.2091 96 14C96 11.7909 94.2091 10 92 10C89.7909 10 88 11.7909 88 14C88 16.2091 89.7909 18 92 18Z" fill="#F2F2F2"/>
<rect x="67" y="39" width="248" height="235" rx="8" fill="white"/>
<rect x="79" y="222" width="68.0629" height="45" rx="4" fill="#DDE3E9"/>
<rect x="158" y="222" width="68.0629" height="45" rx="4" fill="#DDE3E9"/>
<rect x="236" y="222" width="68.0629" height="45" rx="4" fill="#DDE3E9"/>
<rect x="326" y="39" width="84" height="47" rx="4" fill="white"/>
<g clip-path="url(#clip0)">
<rect x="335" y="53.1" width="26" height="7.05" rx="3" fill="#DDE3E9"/>
<rect x="335" y="64.85" width="17.4521" height="7.05" rx="3" fill="#DDE3E9"/>
</g>
<path fill-rule="evenodd" clip-rule="evenodd" d="M396.435 69.5C400.301 69.5 403.435 66.366 403.435 62.5C403.435 58.634 400.301 55.5 396.435 55.5C392.569 55.5 389.435 58.634 389.435 62.5C389.435 66.366 392.569 69.5 396.435 69.5Z" fill="#DDE3E9"/>
<path fill-rule="evenodd" clip-rule="evenodd" d="M396.435 65.5C398.092 65.5 399.435 64.1569 399.435 62.5C399.435 60.8431 398.092 59.5 396.435 59.5C394.778 59.5 393.435 60.8431 393.435 62.5C393.435 64.1569 394.778 65.5 396.435 65.5Z" fill="#F2F2F2"/>
<rect x="326" y="94" width="84" height="39" rx="4" fill="white"/>
<g clip-path="url(#clip1)">
<rect x="335" y="105.7" width="26" height="5.85" rx="2.925" fill="#DDE3E9"/>
<rect x="335" y="115.45" width="17.4521" height="5.85" rx="2.925" fill="#DDE3E9"/>
</g>
<path fill-rule="evenodd" clip-rule="evenodd" d="M396.435 120.5C400.301 120.5 403.435 117.366 403.435 113.5C403.435 109.634 400.301 106.5 396.435 106.5C392.569 106.5 389.435 109.634 389.435 113.5C389.435 117.366 392.569 120.5 396.435 120.5Z" fill="#DDE3E9"/>
<path fill-rule="evenodd" clip-rule="evenodd" d="M396.435 116.5C398.092 116.5 399.435 115.157 399.435 113.5C399.435 111.843 398.092 110.5 396.435 110.5C394.778 110.5 393.435 111.843 393.435 113.5C393.435 115.157 394.778 116.5 396.435 116.5Z" fill="#F2F2F2"/>
<rect x="326" y="141" width="84" height="39" rx="4" fill="white"/>
<g clip-path="url(#clip2)">
<rect x="335" y="152.7" width="26" height="5.85" rx="2.925" fill="#DDE3E9"/>
<rect x="335" y="162.45" width="17.4521" height="5.85" rx="2.925" fill="#DDE3E9"/>
</g>
<path fill-rule="evenodd" clip-rule="evenodd" d="M396.435 167.5C400.301 167.5 403.435 164.366 403.435 160.5C403.435 156.634 400.301 153.5 396.435 153.5C392.569 153.5 389.435 156.634 389.435 160.5C389.435 164.366 392.569 167.5 396.435 167.5Z" fill="#DDE3E9"/>
<path fill-rule="evenodd" clip-rule="evenodd" d="M396.435 163.5C398.092 163.5 399.435 162.157 399.435 160.5C399.435 158.843 398.092 157.5 396.435 157.5C394.778 157.5 393.435 158.843 393.435 160.5C393.435 162.157 394.778 163.5 396.435 163.5Z" fill="#AFB9C5"/>
<rect x="326" y="235" width="84" height="39" rx="4" fill="white"/>
<g clip-path="url(#clip3)">
<rect x="335" y="246.7" width="26" height="5.85" rx="2.925" fill="#DDE3E9"/>
<rect x="335" y="256.45" width="17.4521" height="5.85" rx="2.925" fill="#DDE3E9"/>
</g>
<path fill-rule="evenodd" clip-rule="evenodd" d="M396.435 261.5C400.301 261.5 403.435 258.366 403.435 254.5C403.435 250.634 400.301 247.5 396.435 247.5C392.569 247.5 389.435 250.634 389.435 254.5C389.435 258.366 392.569 261.5 396.435 261.5Z" fill="#DDE3E9"/>
<path fill-rule="evenodd" clip-rule="evenodd" d="M396.435 257.5C398.092 257.5 399.435 256.157 399.435 254.5C399.435 252.843 398.092 251.5 396.435 251.5C394.778 251.5 393.435 252.843 393.435 254.5C393.435 256.157 394.778 257.5 396.435 257.5Z" fill="#F2F2F2"/>
<rect x="326" y="188" width="84" height="39" rx="4" fill="white"/>
<g clip-path="url(#clip4)">
<rect x="335" y="199.7" width="26" height="5.85" rx="2.925" fill="#DDE3E9"/>
<rect x="335" y="209.45" width="17.4521" height="5.85" rx="2.925" fill="#DDE3E9"/>
</g>
<path fill-rule="evenodd" clip-rule="evenodd" d="M395.435 214.5C399.301 214.5 402.435 211.366 402.435 207.5C402.435 203.634 399.301 200.5 395.435 200.5C391.569 200.5 388.435 203.634 388.435 207.5C388.435 211.366 391.569 214.5 395.435 214.5Z" fill="#DDE3E9"/>
<path fill-rule="evenodd" clip-rule="evenodd" d="M395.435 210.5C397.092 210.5 398.435 209.157 398.435 207.5C398.435 205.843 397.092 204.5 395.435 204.5C393.778 204.5 392.435 205.843 392.435 207.5C392.435 209.157 393.778 210.5 395.435 210.5Z" fill="#F2F2F2"/>
<rect x="79" y="136" width="110" height="76" rx="4" fill="#DDE3E9"/>
<rect x="194" y="136" width="110" height="76" rx="4" fill="#DDE3E9"/>
<path fill-rule="evenodd" clip-rule="evenodd" d="M197.209 248.829C196.181 249.917 194.725 250.6 193.104 250.6C189.991 250.6 187.468 248.093 187.468 245C187.468 241.907 189.991 239.4 193.104 239.4V229C184.249 229 177 236.202 177 245C177 253.798 184.249 261 193.104 261C197.756 261 201.96 259.045 204.826 255.934L197.209 248.829Z" fill="#F2F2F2"/>
<path fill-rule="evenodd" clip-rule="evenodd" d="M193 229V239.4C196.093 239.4 198.6 241.907 198.6 245H209C209 236.202 201.798 229 193 229Z" fill="#AFB9C5"/>
<path fill-rule="evenodd" clip-rule="evenodd" d="M198.616 245C198.616 246.778 197.778 248.358 196.478 249.378L202.875 257.522C206.599 254.606 209 250.087 209 245H198.616Z" fill="#C5CFD6"/>
<rect x="252" y="247" width="3" height="14" rx="1.5" fill="#AFB9C5"/>
<rect x="260" y="238" width="3" height="23" rx="1.5" fill="#AFB9C5"/>
<rect x="268" y="234" width="3" height="27" rx="1.5" fill="#AFB9C5"/>
<rect x="276" y="238" width="3" height="23" rx="1.5" fill="#AFB9C5"/>
<rect x="284" y="229" width="3" height="32" rx="1.5" fill="#AFB9C5"/>
<rect x="79" y="53" width="110" height="76" rx="4" fill="#DDE3E9"/>
<rect x="194" y="53" width="110" height="76" rx="4" fill="#DDE3E9"/>
<path fill-rule="evenodd" clip-rule="evenodd" d="M347.899 254.575L338.047 386.927H342.49L358.042 254.735L347.899 254.575Z" fill="#F9B25F"/>
<path fill-rule="evenodd" clip-rule="evenodd" d="M520.395 254.575L530.248 386.927H525.805L510.253 254.735L520.395 254.575Z" fill="#F9B25F"/>
<rect x="338.179" y="254.427" width="192.039" height="5.01522" fill="#D8984D"/>
<rect x="325" y="247.826" width="212.75" height="7.92115" fill="#F9B25F"/>
<path fill-rule="evenodd" clip-rule="evenodd" d="M401.054 206H460.904C462.315 206 463.469 207.457 463.469 209.238L467.744 244.588C467.744 246.369 466.59 247.826 465.179 247.826H405.329C403.918 247.826 402.764 246.369 402.764 244.588L398.489 209.238C398.489 207.457 399.643 206 401.054 206Z" fill="#D8D6DD"/>
<path fill-rule="evenodd" clip-rule="evenodd" d="M432.901 232.593C436.182 232.593 438.842 229.933 438.842 226.652C438.842 223.371 436.182 220.711 432.901 220.711C429.62 220.711 426.96 223.371 426.96 226.652C426.96 229.933 429.62 232.593 432.901 232.593Z" fill="white"/>
<path fill-rule="evenodd" clip-rule="evenodd" d="M113.73 252.531C113.728 252.535 113.726 252.54 113.723 252.545C113.726 252.541 113.73 252.522 113.73 252.531Z" fill="#C5CFD6"/>
<path fill-rule="evenodd" clip-rule="evenodd" d="M113.726 252.538C113.726 252.538 113.725 252.54 113.725 252.542C113.725 252.538 113.733 252.524 113.726 252.538Z" fill="#C5CFD6"/>
<path fill-rule="evenodd" clip-rule="evenodd" d="M113.757 252.461C113.751 252.479 113.742 252.496 113.735 252.514C113.739 252.505 113.742 252.498 113.746 252.489C113.652 252.724 113.712 252.571 113.757 252.461Z" fill="#C5CFD6"/>
<path fill-rule="evenodd" clip-rule="evenodd" d="M113.737 252.515C113.733 252.524 113.729 252.533 113.726 252.541C113.7 252.592 113.737 252.515 113.737 252.515Z" fill="#C5CFD6"/>
<path fill-rule="evenodd" clip-rule="evenodd" d="M113.726 252.538C113.726 252.537 113.726 252.537 113.727 252.536C113.726 252.537 113.726 252.537 113.726 252.538Z" fill="#C5CFD6"/>
<path fill-rule="evenodd" clip-rule="evenodd" d="M113.722 252.544C113.716 252.555 113.747 252.503 113.722 252.544V252.544Z" fill="#C5CFD6"/>
<path fill-rule="evenodd" clip-rule="evenodd" d="M113.726 252.538L113.727 252.536C113.727 252.537 113.727 252.538 113.726 252.538Z" fill="#C5CFD6"/>
<rect x="92" y="229" width="43" height="28.5158" rx="4" fill="#DDE3E9"/>
<path fill-rule="evenodd" clip-rule="evenodd" d="M108.295 237.147L95.6211 257.516H120.968L108.295 237.147Z" fill="#AFB9C5"/>
<path fill-rule="evenodd" clip-rule="evenodd" d="M120.742 242.579L109.653 257.516H131.832L120.742 242.579Z" fill="#C5CFD6"/>
<path fill-rule="evenodd" clip-rule="evenodd" d="M125.495 242.579C127.744 242.579 129.568 240.755 129.568 238.505C129.568 236.255 127.744 234.432 125.495 234.432C123.245 234.432 121.421 236.255 121.421 238.505C121.421 240.755 123.245 242.579 125.495 242.579Z" fill="white"/>
<defs>
<clipPath id="clip0">
<rect width="26" height="19" fill="white" transform="translate(335 53.1)"/>
</clipPath>
<clipPath id="clip1">
<rect width="26" height="16" fill="white" transform="translate(335 105.7)"/>
</clipPath>
<clipPath id="clip2">
<rect width="26" height="16" fill="white" transform="translate(335 152.7)"/>
</clipPath>
<clipPath id="clip3">
<rect width="26" height="16" fill="white" transform="translate(335 246.7)"/>
</clipPath>
<clipPath id="clip4">
<rect width="26" height="16" fill="white" transform="translate(335 199.7)"/>
</clipPath>
</defs>
</svg>
