<svg width="453" height="452" viewBox="0 0 453 452" fill="none" xmlns="http://www.w3.org/2000/svg">
<rect x="78" width="375" height="421" rx="20" fill="#A9D8E1" fill-opacity="0.4"/>
<g clip-path="url(#clip0)">
<rect y="49" width="367" height="286" rx="8" fill="#F2F2F2"/>
<path d="M0 57C0 52.5818 3.58172 49 8 49H359C363.418 49 367 52.5818 367 57V76H0V57Z" fill="#C5CFD6"/>
<path fill-rule="evenodd" clip-rule="evenodd" d="M13 67C15.2091 67 17 65.2092 17 63C17 60.7909 15.2091 59 13 59C10.7909 59 9 60.7909 9 63C9 65.2092 10.7909 67 13 67Z" fill="#F2F2F2"/>
<path fill-rule="evenodd" clip-rule="evenodd" d="M25 67C27.2091 67 29 65.2092 29 63C29 60.7909 27.2091 59 25 59C22.7909 59 21 60.7909 21 63C21 65.2092 22.7909 67 25 67Z" fill="#F2F2F2"/>
<path fill-rule="evenodd" clip-rule="evenodd" d="M37 67C39.2091 67 41 65.2092 41 63C41 60.7909 39.2091 59 37 59C34.7909 59 33 60.7909 33 63C33 65.2092 34.7909 67 37 67Z" fill="#F2F2F2"/>
<g clip-path="url(#clip1)">
<g clip-path="url(#clip2)">
<rect x="12" y="88" width="248" height="235" rx="8" fill="white"/>
<rect x="24" y="271" width="68.0629" height="45" rx="4" fill="#DDE3E9"/>
<rect x="103" y="271" width="68.0629" height="45" rx="4" fill="#DDE3E9"/>
<rect x="181" y="271" width="68.0629" height="45" rx="4" fill="#DDE3E9"/>
<g clip-path="url(#clip3)">
<g clip-path="url(#clip4)">
<rect x="271" y="88" width="84" height="47" rx="4" fill="white"/>
<g clip-path="url(#clip5)">
<rect x="280" y="102.1" width="26" height="7.05" rx="3" fill="#DDE3E9"/>
<rect x="280" y="113.85" width="17.4521" height="7.05" rx="3" fill="#DDE3E9"/>
</g>
<path fill-rule="evenodd" clip-rule="evenodd" d="M341.435 118.5C345.301 118.5 348.435 115.366 348.435 111.5C348.435 107.634 345.301 104.5 341.435 104.5C337.569 104.5 334.435 107.634 334.435 111.5C334.435 115.366 337.569 118.5 341.435 118.5Z" fill="#DDE3E9"/>
<path fill-rule="evenodd" clip-rule="evenodd" d="M341.435 114.5C343.092 114.5 344.435 113.157 344.435 111.5C344.435 109.843 343.092 108.5 341.435 108.5C339.778 108.5 338.435 109.843 338.435 111.5C338.435 113.157 339.778 114.5 341.435 114.5Z" fill="#F2F2F2"/>
</g>
<g clip-path="url(#clip6)">
<rect x="271" y="143" width="84" height="39" rx="4" fill="white"/>
<g clip-path="url(#clip7)">
<rect x="280" y="154.7" width="26" height="5.85" rx="2.925" fill="#DDE3E9"/>
<rect x="280" y="164.45" width="17.4521" height="5.85" rx="2.925" fill="#DDE3E9"/>
</g>
<path fill-rule="evenodd" clip-rule="evenodd" d="M341.435 169.5C345.301 169.5 348.435 166.366 348.435 162.5C348.435 158.634 345.301 155.5 341.435 155.5C337.569 155.5 334.435 158.634 334.435 162.5C334.435 166.366 337.569 169.5 341.435 169.5Z" fill="#DDE3E9"/>
<path fill-rule="evenodd" clip-rule="evenodd" d="M341.435 165.5C343.092 165.5 344.435 164.157 344.435 162.5C344.435 160.843 343.092 159.5 341.435 159.5C339.778 159.5 338.435 160.843 338.435 162.5C338.435 164.157 339.778 165.5 341.435 165.5Z" fill="#F2F2F2"/>
</g>
<g clip-path="url(#clip8)">
<rect x="271" y="190" width="84" height="39" rx="4" fill="white"/>
<g clip-path="url(#clip9)">
<rect x="280" y="201.7" width="26" height="5.85" rx="2.925" fill="#DDE3E9"/>
<rect x="280" y="211.45" width="17.4521" height="5.85" rx="2.925" fill="#DDE3E9"/>
</g>
<path fill-rule="evenodd" clip-rule="evenodd" d="M341.435 216.5C345.301 216.5 348.435 213.366 348.435 209.5C348.435 205.634 345.301 202.5 341.435 202.5C337.569 202.5 334.435 205.634 334.435 209.5C334.435 213.366 337.569 216.5 341.435 216.5Z" fill="#DDE3E9"/>
<path fill-rule="evenodd" clip-rule="evenodd" d="M341.435 212.5C343.092 212.5 344.435 211.157 344.435 209.5C344.435 207.843 343.092 206.5 341.435 206.5C339.778 206.5 338.435 207.843 338.435 209.5C338.435 211.157 339.778 212.5 341.435 212.5Z" fill="#AFB9C5"/>
</g>
<g clip-path="url(#clip10)">
<rect x="271" y="284" width="84" height="39" rx="4" fill="white"/>
<g clip-path="url(#clip11)">
<rect x="280" y="295.7" width="26" height="5.85" rx="2.925" fill="#DDE3E9"/>
<rect x="280" y="305.45" width="17.4521" height="5.85" rx="2.925" fill="#DDE3E9"/>
</g>
<path fill-rule="evenodd" clip-rule="evenodd" d="M341.435 310.5C345.301 310.5 348.435 307.366 348.435 303.5C348.435 299.634 345.301 296.5 341.435 296.5C337.569 296.5 334.435 299.634 334.435 303.5C334.435 307.366 337.569 310.5 341.435 310.5Z" fill="#DDE3E9"/>
<path fill-rule="evenodd" clip-rule="evenodd" d="M341.435 306.5C343.092 306.5 344.435 305.157 344.435 303.5C344.435 301.843 343.092 300.5 341.435 300.5C339.778 300.5 338.435 301.843 338.435 303.5C338.435 305.157 339.778 306.5 341.435 306.5Z" fill="#F2F2F2"/>
</g>
<g clip-path="url(#clip12)">
<rect x="271" y="237" width="84" height="39" rx="4" fill="white"/>
<g clip-path="url(#clip13)">
<rect x="280" y="248.7" width="26" height="5.85" rx="2.925" fill="#DDE3E9"/>
<rect x="280" y="258.45" width="17.4521" height="5.85" rx="2.925" fill="#DDE3E9"/>
</g>
<path fill-rule="evenodd" clip-rule="evenodd" d="M340.435 263.5C344.301 263.5 347.435 260.366 347.435 256.5C347.435 252.634 344.301 249.5 340.435 249.5C336.569 249.5 333.435 252.634 333.435 256.5C333.435 260.366 336.569 263.5 340.435 263.5Z" fill="#DDE3E9"/>
<path fill-rule="evenodd" clip-rule="evenodd" d="M340.435 259.5C342.092 259.5 343.435 258.157 343.435 256.5C343.435 254.843 342.092 253.5 340.435 253.5C338.778 253.5 337.435 254.843 337.435 256.5C337.435 258.157 338.778 259.5 340.435 259.5Z" fill="#F2F2F2"/>
</g>
</g>
<rect x="24" y="185" width="110" height="76" rx="4" fill="#DDE3E9"/>
<rect x="139" y="185" width="110" height="76" rx="4" fill="#DDE3E9"/>
<path fill-rule="evenodd" clip-rule="evenodd" d="M142.209 297.829C141.181 298.917 139.725 299.6 138.104 299.6C134.991 299.6 132.468 297.093 132.468 294C132.468 290.907 134.991 288.4 138.104 288.4V278C129.249 278 122 285.202 122 294C122 302.798 129.249 310 138.104 310C142.756 310 146.96 308.045 149.826 304.934L142.209 297.829Z" fill="#F2F2F2"/>
<path fill-rule="evenodd" clip-rule="evenodd" d="M138 278V288.4C141.093 288.4 143.6 290.907 143.6 294H154C154 285.202 146.798 278 138 278Z" fill="#AFB9C5"/>
<path fill-rule="evenodd" clip-rule="evenodd" d="M143.616 294C143.616 295.778 142.778 297.358 141.478 298.378L147.875 306.522C151.599 303.606 154 299.087 154 294H143.616Z" fill="#C5CFD6"/>
<rect x="197" y="296" width="3" height="14" rx="1.5" fill="#AFB9C5"/>
<rect x="205" y="287" width="3" height="23" rx="1.5" fill="#AFB9C5"/>
<rect x="213" y="283" width="3" height="27" rx="1.5" fill="#AFB9C5"/>
<rect x="221" y="287" width="3" height="23" rx="1.5" fill="#AFB9C5"/>
<rect x="229" y="278" width="3" height="32" rx="1.5" fill="#AFB9C5"/>
</g>
<rect x="24" y="102" width="110" height="76" rx="4" fill="#DDE3E9"/>
<rect x="139" y="102" width="110" height="76" rx="4" fill="#DDE3E9"/>
</g>
</g>
<path fill-rule="evenodd" clip-rule="evenodd" d="M238.899 319.575L229.047 451.927H233.49L249.042 319.735L238.899 319.575Z" fill="#F9B25F"/>
<path fill-rule="evenodd" clip-rule="evenodd" d="M411.395 319.575L421.248 451.927H416.805L401.253 319.735L411.395 319.575Z" fill="#F9B25F"/>
<rect x="229.179" y="319.427" width="192.039" height="5.01522" fill="#D8984D"/>
<rect x="216" y="312.826" width="212.75" height="7.92115" fill="#F9B25F"/>
<path fill-rule="evenodd" clip-rule="evenodd" d="M292.054 271H351.904C353.315 271 354.469 272.457 354.469 274.238L358.744 309.588C358.744 311.369 357.59 312.826 356.179 312.826H296.329C294.918 312.826 293.764 311.369 293.764 309.588L289.489 274.238C289.489 272.457 290.643 271 292.054 271Z" fill="#D8D6DD"/>
<path fill-rule="evenodd" clip-rule="evenodd" d="M323.901 297.593C327.182 297.593 329.842 294.933 329.842 291.652C329.842 288.371 327.182 285.711 323.901 285.711C320.62 285.711 317.96 288.371 317.96 291.652C317.96 294.933 320.62 297.593 323.901 297.593Z" fill="white"/>
<path fill-rule="evenodd" clip-rule="evenodd" d="M58.7297 301.531C58.7279 301.535 58.7261 301.54 58.7234 301.545C58.7261 301.541 58.7297 301.522 58.7297 301.531Z" fill="#C5CFD6"/>
<path fill-rule="evenodd" clip-rule="evenodd" d="M58.7255 301.537C58.7255 301.538 58.7246 301.54 58.7246 301.542C58.7246 301.537 58.7328 301.524 58.7255 301.537Z" fill="#C5CFD6"/>
<path fill-rule="evenodd" clip-rule="evenodd" d="M58.7569 301.461C58.7506 301.479 58.7425 301.496 58.7352 301.514C58.7388 301.505 58.7425 301.498 58.7461 301.489C58.6519 301.724 58.7117 301.571 58.7569 301.461Z" fill="#C5CFD6"/>
<path fill-rule="evenodd" clip-rule="evenodd" d="M58.7367 301.515C58.7331 301.524 58.7294 301.533 58.7258 301.541C58.6996 301.591 58.7367 301.515 58.7367 301.515Z" fill="#C5CFD6"/>
<path fill-rule="evenodd" clip-rule="evenodd" d="M58.7261 301.538C58.7261 301.537 58.7261 301.537 58.727 301.536C58.7261 301.537 58.7261 301.537 58.7261 301.538Z" fill="#C5CFD6"/>
<path fill-rule="evenodd" clip-rule="evenodd" d="M58.7218 301.544C58.7164 301.555 58.7472 301.503 58.7218 301.544V301.544Z" fill="#C5CFD6"/>
<path fill-rule="evenodd" clip-rule="evenodd" d="M58.7257 301.538L58.7275 301.536C58.7266 301.537 58.7266 301.538 58.7257 301.538Z" fill="#C5CFD6"/>
<rect x="37" y="278" width="43" height="28.5158" rx="4" fill="#DDE3E9"/>
<path fill-rule="evenodd" clip-rule="evenodd" d="M53.2948 286.147L40.6211 306.516H65.9685L53.2948 286.147Z" fill="#AFB9C5"/>
<path fill-rule="evenodd" clip-rule="evenodd" d="M65.7423 291.579L54.6528 306.516H76.8318L65.7423 291.579Z" fill="#C5CFD6"/>
<path fill-rule="evenodd" clip-rule="evenodd" d="M70.4946 291.579C72.7444 291.579 74.5683 289.755 74.5683 287.505C74.5683 285.255 72.7444 283.432 70.4946 283.432C68.2447 283.432 66.4209 285.255 66.4209 287.505C66.4209 289.755 68.2447 291.579 70.4946 291.579Z" fill="white"/>
<defs>
<clipPath id="clip0">
<rect width="367" height="286" fill="white" transform="translate(0 49)"/>
</clipPath>
<clipPath id="clip1">
<rect width="343" height="235" fill="white" transform="translate(12 88)"/>
</clipPath>
<clipPath id="clip2">
<rect width="343" height="235" fill="white" transform="translate(12 88)"/>
</clipPath>
<clipPath id="clip3">
<rect width="84" height="235" fill="white" transform="translate(271 88)"/>
</clipPath>
<clipPath id="clip4">
<rect width="84" height="47" fill="white" transform="translate(271 88)"/>
</clipPath>
<clipPath id="clip5">
<rect width="26" height="19" fill="white" transform="translate(280 102.1)"/>
</clipPath>
<clipPath id="clip6">
<rect width="84" height="39" fill="white" transform="translate(271 143)"/>
</clipPath>
<clipPath id="clip7">
<rect width="26" height="16" fill="white" transform="translate(280 154.7)"/>
</clipPath>
<clipPath id="clip8">
<rect width="84" height="39" fill="white" transform="translate(271 190)"/>
</clipPath>
<clipPath id="clip9">
<rect width="26" height="16" fill="white" transform="translate(280 201.7)"/>
</clipPath>
<clipPath id="clip10">
<rect width="84" height="39" fill="white" transform="translate(271 284)"/>
</clipPath>
<clipPath id="clip11">
<rect width="26" height="16" fill="white" transform="translate(280 295.7)"/>
</clipPath>
<clipPath id="clip12">
<rect width="84" height="39" fill="white" transform="translate(271 237)"/>
</clipPath>
<clipPath id="clip13">
<rect width="26" height="16" fill="white" transform="translate(280 248.7)"/>
</clipPath>
</defs>
</svg>
